<svg width="80" height="80" viewBox="0 0 80 80" fill="none" xmlns="http://www.w3.org/2000/svg">
  <path d="M5 24.5H25V13.5H46V66L36.5 66.5L28.5 66L17 67L5 66V24.5Z" fill="white"/>
  <path d="M43 48C43 46.8954 43.8954 46 45 46H63C64.1046 46 65 46.8954 65 48V64.1736C65 65.208 64.2112 66.0717 63.1811 66.1654L54.1811 66.9835C54.0606 66.9945 53.9394 66.9945 53.8189 66.9835L44.8189 66.1654C43.7888 66.0717 43 65.208 43 64.1736V48Z" fill="#FFA400"/>
  <path d="M23.7013 15.7299V23.6411H6.93425C5.16992 23.6411 3.73438 25.2318 3.73438 27.186V65.8188C3.73438 66.2301 4.03494 66.5806 4.44184 66.6424C11.7974 67.7676 19.5397 68.1235 26.8512 66.9354C32.5517 67.5615 38.9933 67.9338 44.6365 66.9186C50.9509 68.0616 57.3939 68.1764 63.679 66.88C65.5459 66.4988 66.7466 66.1937 66.7767 64.9474C66.7875 64.5041 67.1457 49.7138 67.1707 48.6788C67.2364 45.9692 65.4071 45.0234 62.7997 44.968C60.5856 44.9218 52.1187 44.9482 48.0226 44.941C48.1395 36.5418 48.2377 28.1519 48.3345 19.7411C48.3765 15.8722 47.4184 12.186 43.5347 12.186H26.9012C25.1368 12.186 23.7013 13.7757 23.7013 15.7299ZM5.40104 65.1005V27.186C5.40104 26.1509 6.08898 25.3078 6.93425 25.3078H26.0233C27.2669 25.3078 27.3513 26.3855 27.3679 27.4966C27.7379 52.4523 27.4595 39.7279 27.5565 65.1277C21.7408 66.1729 14.5367 66.4307 5.40104 65.1005ZM29.6363 65.5369C29.7781 64.8038 29.728 66.3567 30.1456 31.0189C30.1813 27.7225 29.3223 23.6411 26.0233 23.6411C25.9519 23.6403 25.4552 23.6362 25.368 23.6372V15.7299C25.368 14.6947 26.0559 13.8527 26.9012 13.8527H43.5347C44.38 13.8527 45.0679 14.6947 45.0679 15.7299V45.0045C43.5738 45.3026 42.4345 46.7466 42.4345 48.4859V65.5579C38.9116 65.9809 34.6931 65.9773 29.6363 65.5369ZM57.8814 65.9976L57.8153 55.6734C57.8153 54.5059 56.8659 53.5565 55.6984 53.5565H51.8903C50.7228 53.5565 49.7733 54.5059 49.7733 55.6886L49.9578 65.9495C48.0679 65.7853 46.1839 65.5271 44.1011 65.1309V48.4859C44.1011 47.4508 44.7891 46.6077 45.6343 46.6077H62.2788C63.118 46.6077 63.8011 47.4548 63.8011 48.4859C63.3746 70.772 63.5205 63.8554 63.5193 65.2109C61.8025 65.5614 60.113 65.8261 57.8814 65.9976Z" fill="#2D2F34"/>
  <path d="M31.5833 20.2438H39.7279C40.1879 20.2438 40.5612 19.8706 40.5612 19.4105C40.5612 18.9504 40.1879 18.5771 39.7279 18.5771H31.5833C31.1233 18.5771 30.75 18.9504 30.75 19.4105C30.75 19.8706 31.1233 20.2438 31.5833 20.2438Z" fill="#2D2F34"/>
  <path d="M31.4076 30.2253H39.9009C40.361 30.2253 40.7343 29.852 40.7343 29.3919C40.7343 28.9319 40.361 28.5586 39.9009 28.5586H31.4076C30.9475 28.5586 30.5742 28.9319 30.5742 29.3919C30.5742 29.852 30.9475 30.2253 31.4076 30.2253Z" fill="#2D2F34"/>
  <path d="M40.1674 39.1533H31.2357C30.7756 39.1533 30.4023 39.5266 30.4023 39.9867C30.4023 40.4467 30.7756 40.82 31.2357 40.82H40.1674C40.6275 40.82 41.0008 40.4467 41.0008 39.9867C41.0008 39.5266 40.6275 39.1533 40.1674 39.1533Z" fill="#2D2F34"/>
  <path d="M38.8791 51.1487H31.6732C31.2131 51.1487 30.8398 51.5219 30.8398 51.982C30.8398 52.4421 31.2131 52.8154 31.6732 52.8154H38.8791C39.3392 52.8154 39.7125 52.4421 39.7125 51.982C39.7125 51.5219 39.3392 51.1487 38.8791 51.1487Z" fill="#2D2F34"/>
  <path d="M13.0232 28.4106H9.602C9.44859 28.4106 9.32422 28.535 9.32422 28.6884V32.1095C9.32422 32.2631 9.44859 32.3873 9.602 32.3873H13.0232C13.1766 32.3873 13.3009 32.2631 13.3009 32.1095V28.6884C13.3009 28.535 13.1766 28.4106 13.0232 28.4106Z" fill="#2D2F34"/>
  <path d="M22.2849 28.4106H18.8637C18.7103 28.4106 18.5859 28.535 18.5859 28.6884V32.1095C18.5859 32.2631 18.7103 32.3873 18.8637 32.3873H22.2849C22.4383 32.3873 22.5627 32.2631 22.5627 32.1095V28.6884C22.5627 28.535 22.4383 28.4106 22.2849 28.4106Z" fill="#2D2F34"/>
  <path d="M13.0232 38.4106H9.602C9.44859 38.4106 9.32422 38.535 9.32422 38.6884V42.1095C9.32422 42.2631 9.44859 42.3873 9.602 42.3873H13.0232C13.1766 42.3873 13.3009 42.2631 13.3009 42.1095V38.6884C13.3009 38.535 13.1766 38.4106 13.0232 38.4106Z" fill="#2D2F34"/>
  <path d="M22.2849 38.4106H18.8637C18.7103 38.4106 18.5859 38.535 18.5859 38.6884V42.1095C18.5859 42.2631 18.7103 42.3873 18.8637 42.3873H22.2849C22.4383 42.3873 22.5627 42.2631 22.5627 42.1095V38.6884C22.5627 38.535 22.4383 38.4106 22.2849 38.4106Z" fill="#2D2F34"/>
  <path d="M13.0232 47.9478H9.602C9.44859 47.9478 9.32422 48.072 9.32422 48.2255V51.6466C9.32422 51.8 9.44859 51.9244 9.602 51.9244H13.0232C13.1766 51.9244 13.3009 51.8 13.3009 51.6466V48.2255C13.3009 48.072 13.1766 47.9478 13.0232 47.9478Z" fill="#2D2F34"/>
  <path d="M22.2849 47.9478H18.8637C18.7103 47.9478 18.5859 48.072 18.5859 48.2255V51.6466C18.5859 51.8 18.7103 51.9244 18.8637 51.9244H22.2849C22.4383 51.9244 22.5627 51.8 22.5627 51.6466V48.2255C22.5627 48.072 22.4383 47.9478 22.2849 47.9478Z" fill="#2D2F34"/>
  <path d="M13.0232 57.3921H9.602C9.44859 57.3921 9.32422 57.5163 9.32422 57.6699V61.0909C9.32422 61.2443 9.44859 61.3687 9.602 61.3687H13.0232C13.1766 61.3687 13.3009 61.2443 13.3009 61.0909V57.6699C13.3009 57.5163 13.1766 57.3921 13.0232 57.3921Z" fill="#2D2F34"/>
  <path d="M22.2849 57.3921H18.8637C18.7103 57.3921 18.5859 57.5163 18.5859 57.6699V61.0909C18.5859 61.2443 18.7103 61.3687 18.8637 61.3687H22.2849C22.4383 61.3687 22.5627 61.2443 22.5627 61.0909V57.6699C22.5627 57.5163 22.4383 57.3921 22.2849 57.3921Z" fill="#2D2F34"/>
</svg>
